<svg xmlns="http://www.w3.org/2000/svg" viewBox="0 0 1000 560" role="img" aria-labelledby="title desc">
  <title id="title">Leg press – start a konec</title><desc id="desc">Postava leží na opěrce, začne s pokrčenými koleny a vytlačí desku téměř do natažení.</desc>
  <defs><marker id="arrow" markerWidth="10" markerHeight="10" refX="8" refY="5" orient="auto"><path d="M0 0l10 5-10 5z" fill="#78a900"/></marker></defs>
  <rect width="1000" height="560" rx="28" fill="#f2f3ef"/><path d="M500 40v480" stroke="#d5d9d1" stroke-width="3" stroke-dasharray="9 12"/>
  <g font-family="Arial,sans-serif" font-weight="800"><text x="55" y="58" font-size="25" fill="#59615c">START</text><text x="555" y="58" font-size="25" fill="#59615c">KONEC</text></g>
  <g fill="none" stroke="#252b29" stroke-width="14" stroke-linecap="round" stroke-linejoin="round">
    <path d="M70 455h390M130 420l120-150M120 430l-35-28M355 110l80 80M335 130l80 80M370 165L255 410"/>
    <circle cx="185" cy="328" r="32" fill="#ffd0ae"/><path d="M205 350l80 45M285 395l55-75M340 320l30-155M205 350l-35 70"/>
    <path d="M570 455h390M630 420l120-150M620 430l-35-28M855 110l80 80M835 130l80 80M870 165L755 410"/>
    <circle cx="685" cy="328" r="32" fill="#ffd0ae"/><path d="M705 350l80 45M785 395l45-105M830 290l40-125M705 350l-35 70"/>
  </g>
  <path d="M430 315c35-18 67-44 95-78" fill="none" stroke="#78a900" stroke-width="16" stroke-linecap="round" marker-end="url(#arrow)"/>
  <g fill="#78a900"><circle cx="370" cy="165" r="10"/><circle cx="870" cy="165" r="10"/></g>
  <text x="500" y="535" text-anchor="middle" font-family="Arial,sans-serif" font-size="21" font-weight="700" fill="#59615c">DESKU TLAČ OD TĚLA · KOLENA NEZAMYKEJ</text>
</svg>
